<?xml version="1.0" encoding="UTF-8"?>
<svg width="66px" height="71px" viewBox="0 0 66 71" version="1.1" xmlns="http://www.w3.org/2000/svg" xmlns:xlink="http://www.w3.org/1999/xlink">
    <!-- Generator: Sketch 50.2 (55047) - http://www.bohemiancoding.com/sketch -->
    <title>Node</title>
    <desc>Created with Sketch.</desc>
    <defs></defs>
    <g id="Page-1" stroke="none" stroke-width="1" fill="none" fill-rule="evenodd">
        <g id="Node" fill-rule="nonzero">
            <path d="M41.2045,7.000014 C41.2045,3.400014 38.3045,0.400011793 34.60449,0.400011793 C31.00449,0.400011793 28.0045031,3.300014 28.0045031,7.000014 C28.0045031,10.700024 30.90449,13.600024 34.60449,13.600024 C38.2045,13.600024 41.2045,10.700024 41.2045,7.000014 Z" id="Shape" fill="#FFC951"></path>
            <path d="M16.70452,49.6001 C16.70452,46.0001 13.80452,43.0001244 10.10451,43.0001244 C6.50451,43.0001244 3.50452305,45.9001 3.50452305,49.6001 C3.50452305,53.2001 6.40451,56.2001 10.10451,56.2001 C13.80452,56.2001 16.70452,53.3001 16.70452,49.6001 Z" id="Shape" fill="#FFC951"></path>
            <path d="M65.9045,49.6001 C65.9045,46.0001 63.0045,43.0001244 59.30451,43.0001244 C55.70451,43.0001244 52.7045,45.9001 52.7045,49.6001 C52.7045,53.2001 55.60451,56.2001 59.30451,56.2001 C62.9045,56.2001 65.9045,53.3001 65.9045,49.6001 Z" id="Shape" fill="#FFC951"></path>
            <path d="M62.9045,47.6 C62.4045,45.8 61.3045,44.3 59.6045,43.4 C56.5045,41.6 52.5045,42.5 50.5045,45.4 L33.0045,35.3 L50.0045,24.5 C50.9045,26.1 52.4045,27.2 54.2045,27.7 C54.8045,27.9 55.4045,27.9 56.0045,27.9 C56.7045,27.9 57.4045,27.8 58.0045,27.6 C58.7045,30.1 59.1045,32.6 59.1045,35.2 C59.1045,36.3 59.0045,37.4 58.9045,38.5 C58.9045,38.9 59.1045,39.3 59.5045,39.3 L59.6045,39.3 C60.0045,39.3 60.3045,39 60.3045,38.6 C60.4045,37.4 60.5045,36.3 60.5045,35.1 C60.5045,32.3 60.1045,29.5 59.3045,26.9 L59.4045,26.9 C61.0045,26 62.1045,24.5 62.6045,22.7 C63.1045,20.9 62.8045,19 61.9045,17.4 C61.0045,15.8 59.5045,14.7 57.7045,14.2 C55.9045,13.7 54.0045,14 52.4045,14.9 C52.4045,14.9 52.3045,14.9 52.3045,15 C48.5045,11 43.7045,8.29999 38.4045,6.99999 L38.4045,6.89999 C38.4045,3.09999 35.3045,-6.10352e-06 31.5045,-6.10352e-06 C27.7045,-6.10352e-06 24.6045,3.09999 24.6045,6.89999 L24.6045,6.99999 C19.2045,8.29999 14.3045,11.1 10.5045,15.2 C10.5045,15.2 10.4045,15.2 10.4045,15.1 C7.10454,13.2 2.80454,14.4 0.904536,17.7 C-0.995464,21 0.204542,25.3 3.50454,27.2 C4.60454,27.8 5.80454,28.1 6.90454,28.1 C9.10454,28.1 11.3045,27 12.6045,25.1 L30.1045,35.2 L13.1045,46 C12.2045,44.4 10.7045,43.3 8.90454,42.8 C7.60454,42.5 6.30453,42.5 5.10453,42.9 C4.40453,40.4 4.00454,37.9 4.00454,35.3 C4.00454,34.5 4.00453,33.6 4.10453,32.8 C4.10453,32.4 3.80454,32 3.40454,32 C3.00454,31.9 2.60453,32.3 2.60453,32.7 C2.50453,33.6 2.50454,34.5 2.50454,35.4 C2.50454,38.2 2.90454,41 3.70454,43.6 C3.70454,43.6 3.60453,43.6 3.60453,43.7 C2.00453,44.6 0.904536,46.1 0.404536,47.9 C-0.0954637,49.7 0.204533,51.6 1.10453,53.2 C2.40453,55.4 4.70453,56.6 7.10453,56.6 C8.30453,56.6 9.50453,56.3 10.6045,55.7 C10.6045,55.7 10.7045,55.7 10.7045,55.6 C14.5045,59.6 19.3045,62.3 24.6045,63.6 L24.6045,63.7 C24.6045,67.5 27.7045,70.6 31.5045,70.6 C35.3045,70.6 38.4045,67.5 38.4045,63.7 L38.4045,63.6 C43.8045,62.3 48.7045,59.5 52.5045,55.4 C52.5045,55.4 52.6045,55.4 52.6045,55.5 C53.7045,56.1 54.8045,56.4 56.0045,56.4 C56.6045,56.4 57.2045,56.3 57.8045,56.2 C59.6045,55.7 61.1045,54.6 62.0045,52.9 C63.1045,51.2 63.4045,49.4 62.9045,47.6 Z M56.1045,15.6 C56.6045,15.6 57.0045,15.7 57.5045,15.8 C58.9045,16.2 60.1045,17.1 60.8045,18.3 C62.3045,20.9 61.4045,24.2 58.8045,25.8 C57.5045,26.5 56.1045,26.7 54.7045,26.4 C53.3045,26 52.1045,25.1 51.4045,23.9 C50.7045,22.6 50.5045,21.2 50.8045,19.8 C51.2045,18.4 52.1045,17.2 53.3045,16.5 C54.2045,15.9 55.1045,15.6 56.1045,15.6 Z M31.6045,1.6 C34.6045,1.6 37.1045,4 37.1045,7.1 C37.1045,10.1 34.7045,12.6 31.6045,12.6 C28.6045,12.6 26.1045,10.2 26.1045,7.1 C26.2045,4 28.6045,1.6 31.6045,1.6 Z M24.9045,8.70001 C25.6045,11.5 28.0045,13.7 30.9045,14 L30.9045,29.9 C30.9045,30.3 31.2045,30.6 31.6045,30.6 C32.0045,30.6 32.3045,30.3 32.3045,29.9 L32.3045,14 C35.2045,13.7 37.6045,11.5 38.3045,8.70001 C43.2045,9.90001 47.7045,12.5 51.2045,16.1 C50.3045,17 49.6045,18.1 49.3045,19.4 C49.0045,20.7 49.0045,22 49.4045,23.3 L31.5045,34.6 L13.3045,24.1 C14.4045,21.4 13.7045,18.3 11.6045,16.4 C15.4045,12.5 19.9045,9.90001 24.9045,8.70001 Z M4.30455,26.1 C1.70455,24.6 0.804545,21.3 2.30455,18.7 C3.30455,16.9 5.10454,16 7.00454,16 C7.90454,16 8.80454,16.2 9.70454,16.7 C12.3045,18.2 13.2045,21.5 11.7045,24.1 C10.3045,26.6 6.90455,27.6 4.30455,26.1 Z M2.40454,52.4 C1.70454,51.1 1.50455,49.7 1.80455,48.3 C2.20455,46.9 3.10455,45.7 4.30455,45 C5.10455,44.5 6.10454,44.3 7.00454,44.3 C7.50454,44.3 7.90454,44.4 8.40454,44.5 C9.80454,44.9 11.0045,45.8 11.7045,47 C13.2045,49.6 12.3045,52.9 9.70454,54.5 C7.30454,55.9 3.90454,55 2.40454,52.4 Z M31.6045,69.1 C28.6045,69.1 26.1045,66.7 26.1045,63.6 C26.1045,60.6 28.5045,58.1 31.6045,58.1 C34.6045,58.1 37.1045,60.5 37.1045,63.6 C37.1045,66.7 34.6045,69.1 31.6045,69.1 Z M38.4045,62.1 C37.7045,59 34.9045,56.8 31.7045,56.8 C28.4045,56.8 25.7045,59.1 25.0045,62.1 C20.1045,60.9 15.6045,58.3 12.1045,54.7 C14.0045,52.9 14.7045,50.1 13.9045,47.6 L31.0045,36.8 L31.0045,52.9 C31.0045,53.3 31.3045,53.6 31.7045,53.6 C32.1045,53.6 32.4045,53.3 32.4045,52.9 L32.4045,36.7 L49.9045,46.8 C49.3045,48.2 49.2045,49.8 49.6045,51.3 C49.9045,52.6 50.6045,53.7 51.6045,54.5 C47.9045,58.2 43.4045,60.8 38.4045,62.1 Z M60.9045,52.1 C60.2045,53.4 59.0045,54.3 57.6045,54.7 C56.2045,55.1 54.7045,54.9 53.5045,54.2 C52.2045,53.5 51.3045,52.3 50.9045,50.9 C50.5045,49.5 50.7045,48 51.4045,46.8 C52.4045,45 54.2045,44.1 56.1045,44.1 C57.0045,44.1 57.9045,44.3 58.8045,44.8 C60.1045,45.5 61.0045,46.7 61.4045,48.1 C61.8045,49.4 61.7045,50.9 60.9045,52.1 Z" id="Shape" fill="#4C4E54"></path>
        </g>
    </g>
</svg>